<svg version="1.1" id="Layer_1" xmlns="http://www.w3.org/2000/svg" xmlns:xlink="http://www.w3.org/1999/xlink" x="0px" y="0px"
	 width="100%" viewBox="0 0 1024 637" xml:space="preserve">

<path fill="#C70036" opacity="1.000000" stroke="none" 
	d="
M651.003601,155.141159 
	C657.869202,156.412766 664.711853,157.828949 671.605835,158.921249 
	C681.347229,160.464722 689.879639,164.775330 697.875305,170.216095 
	C711.160278,179.256042 722.448486,190.202728 729.702881,204.829529 
	C729.982605,205.393494 730.563721,205.807953 730.970398,206.746613 
	C730.936340,207.201141 731.057007,207.529541 731.057007,207.529541 
	C731.057007,207.529541 731.463501,207.529327 731.463501,207.529327 
	C731.463501,207.529327 731.311523,207.628632 731.319824,207.989639 
	C734.492432,218.549561 737.656799,228.748489 740.854553,239.418365 
	C740.969421,246.180115 740.747437,252.496643 741.277222,258.749481 
	C741.497986,261.355682 743.319458,263.826263 744.413025,266.358521 
	C747.977112,271.904938 751.541260,277.451355 755.118591,283.709259 
	C756.128174,285.938202 757.124451,287.455688 758.120789,288.973145 
	C758.120789,288.973145 758.040466,288.961578 758.065430,289.311340 
	C758.868225,292.012543 759.825989,294.321533 760.393616,296.722687 
	C763.241272,308.768158 765.986816,320.837799 768.810547,333.372070 
	C770.702698,383.538391 749.383362,423.139923 714.150635,455.945251 
	C689.665283,478.743683 660.284973,494.955231 632.152039,512.708984 
	C600.100830,532.935364 569.158203,554.465393 543.568542,582.805603 
	C530.195251,597.616394 518.364319,613.383057 512.903198,633.031372 
	C512.696838,633.049072 512.490417,633.066772 511.924438,632.878052 
	C511.564819,632.671753 511.233093,632.338623 511.233093,632.338623 
	C506.954742,624.204346 502.870422,615.960693 498.357544,607.958679 
	C489.021881,591.405396 476.219299,577.534363 462.019775,565.291809 
	C446.983734,552.328064 431.119934,540.199402 414.807312,528.873108 
	C394.576416,514.826294 373.401825,502.146729 352.843140,488.561401 
	C335.066071,476.814270 317.309967,464.956055 302.635101,449.234467 
	C289.516388,435.179993 277.703033,420.241272 270.857117,401.935242 
	C267.090363,391.862854 261.619537,382.189148 259.469421,371.807098 
	C256.311493,356.558868 256.183502,341.042328 258.493195,325.232178 
	C260.655182,310.432739 266.588501,297.619171 273.029785,284.689545 
	C273.849487,283.044098 274.541168,281.198242 275.782318,279.921906 
	C282.974762,272.525330 284.048248,263.465912 283.011444,253.880219 
	C281.861053,243.244308 283.975311,232.909790 287.313995,223.125763 
	C290.800781,212.907623 294.731781,202.599289 302.700470,194.537704 
	C306.857910,190.331863 309.874420,184.897598 314.338684,181.120087 
	C320.524567,175.885788 327.395752,171.371246 334.344025,167.159790 
	C338.945221,164.370941 344.056061,162.221359 349.189758,160.562210 
	C356.069641,158.338715 363.192139,156.865967 370.973175,155.316452 
	C378.216797,155.689651 384.698944,155.956467 391.178314,155.901306 
	C396.462219,155.856339 401.742859,155.426437 407.024933,155.167206 
	C412.949615,156.385223 418.873077,157.609116 424.799408,158.819016 
	C428.296906,159.533051 431.906281,159.894958 435.277771,160.991806 
	C443.649109,163.715240 452.461975,165.761337 460.095337,169.919327 
	C472.584808,176.722504 484.341827,184.890076 496.259125,192.708771 
	C498.911255,194.448776 501.000000,197.077271 503.251770,199.390533 
	C506.230194,202.450317 512.838135,202.851166 516.739075,200.269180 
	C529.004883,192.150421 540.901245,183.351791 553.734497,176.251160 
	C563.730713,170.720230 574.851868,167.173904 585.591858,163.055252 
	C591.470581,160.800842 597.511230,158.828217 603.634888,157.395248 
	C609.036438,156.131256 614.654541,155.792984 620.955566,155.298920 
	C631.490601,155.414978 641.247131,155.278076 651.003601,155.141159 
M648.753540,253.108292 
	C648.851807,253.393600 649.043518,253.586426 649.207153,253.783676 
	C649.207153,253.783676 649.354248,253.733612 649.312866,254.430496 
	C650.078979,255.510986 650.845093,256.591492 651.484436,257.640259 
	C651.484436,257.640259 651.549988,257.527191 651.393677,258.313080 
	C652.998657,266.826752 654.603638,275.340393 656.125916,284.762268 
	C654.291504,293.134857 653.487366,301.925507 650.311218,309.753723 
	C647.548279,316.563599 645.492859,323.023376 645.990479,330.331970 
	C647.455750,351.853058 643.097839,372.281677 634.351074,391.891479 
	C632.846497,395.264648 631.716980,398.805176 630.414246,402.268402 
	C630.737854,402.526306 631.061462,402.784210 631.385071,403.042114 
	C632.521851,402.377411 633.658630,401.712677 635.173401,400.413666 
	C646.497131,396.026886 654.450073,386.953308 663.326660,379.390045 
	C681.058289,364.281830 694.826660,345.634491 707.108521,325.954102 
	C711.670105,318.644684 715.830505,311.018890 719.429138,303.194855 
	C722.480042,296.561615 725.008972,289.572479 726.776062,282.493011 
	C729.136047,273.037933 731.522461,263.568390 731.236938,253.565826 
	C730.992371,244.998657 729.969055,236.803162 727.321960,228.591446 
	C723.320984,216.179657 717.714905,204.646042 708.633545,195.410919 
	C701.749390,188.410278 693.501282,182.751007 685.737610,175.973572 
	C685.129395,175.660797 684.521179,175.348038 683.983093,175.016327 
	C683.983093,175.016327 684.000671,175.086823 683.634155,174.488403 
	C673.883667,168.428314 663.088501,165.938263 650.896118,165.093811 
	C640.983215,165.219254 631.070312,165.344681 620.342834,165.452393 
	C616.249084,165.989853 612.034485,166.080856 608.084656,167.149887 
	C596.981812,170.154861 585.987915,173.562622 574.196167,176.891006 
	C571.284729,178.092194 568.146301,178.925690 565.501526,180.558731 
	C554.509583,187.345886 543.630798,194.319092 532.798340,201.359192 
	C530.570068,202.807312 530.743835,203.074661 533.036255,204.949524 
	C535.674683,206.454147 538.394531,207.833359 540.937439,209.485077 
	C552.099182,216.735214 564.022278,223.084991 571.939209,234.338791 
	C574.195984,237.546722 576.925354,238.302399 580.312805,236.909714 
	C590.106018,232.883438 600.091614,230.379028 610.857910,230.915787 
	C621.891418,231.465881 631.167236,235.561188 639.419006,243.373550 
	C639.945984,243.763107 640.472961,244.152649 641.272888,244.711624 
	C641.272888,244.711624 641.428955,244.992416 641.568787,245.426254 
	C642.041565,245.778397 642.514343,246.130539 643.297424,246.710861 
	C643.297424,246.710861 643.523743,247.022583 643.690491,247.210129 
	C643.690491,247.210129 643.933167,247.271408 643.933167,247.271408 
	C643.933167,247.271408 644.175598,247.207138 644.601807,247.328415 
	C644.601807,247.328415 644.792053,247.728668 644.736450,248.302032 
	C645.545288,249.136688 646.354187,249.971344 647.195679,250.832199 
	C647.195679,250.832199 647.210022,250.871521 647.289429,251.384064 
	C647.654297,251.662949 648.019104,251.941833 648.677612,252.371475 
	C648.677612,252.371475 648.762268,252.690491 648.753540,253.108292 
M430.973541,282.815430 
	C431.068573,284.151062 431.163605,285.486664 431.290039,287.605682 
	C432.120605,290.980835 432.801941,294.403687 433.858521,297.706543 
	C434.256226,298.949738 435.523712,299.914612 436.836151,300.248169 
	C438.423065,295.871887 439.391479,291.127899 441.728180,287.197418 
	C446.321655,279.470886 451.486572,272.060059 456.752411,264.762024 
	C469.825775,246.643539 488.857697,241.461273 509.847504,241.099167 
	C513.689148,241.032883 517.540710,242.801239 521.411255,242.914444 
	C532.563843,243.240662 542.999512,246.089996 553.249146,250.316483 
	C555.453247,251.225372 559.168457,250.886520 561.074402,249.543152 
	C564.033508,247.457443 564.203308,243.960815 561.582520,240.867920 
	C560.846313,239.999054 560.361694,238.907288 559.585999,238.083054 
	C545.516907,223.133621 527.694153,215.579544 507.372864,211.403534 
	C499.226166,211.173218 491.079498,210.942902 482.084259,210.733765 
	C478.282410,211.816849 474.201904,212.342178 470.726532,214.078674 
	C454.918030,221.977448 442.978027,233.975967 434.911011,249.685013 
	C433.122192,253.168411 432.193878,257.093689 430.502014,261.580414 
	C430.644684,268.080139 430.787354,274.579865 430.945068,281.551971 
	C430.945068,281.551971 431.055389,282.011261 430.973541,282.815430 
M585.039917,283.969727 
	C585.039917,283.969727 585.072571,283.873199 584.999634,284.694489 
	C586.293701,289.759003 587.587830,294.823547 588.923096,300.764038 
	C589.004150,302.223022 589.085205,303.682037 589.064880,305.949677 
	C589.264343,308.305756 589.463806,310.661865 589.643372,313.843689 
	C589.518188,316.271118 589.392944,318.698547 589.099915,321.863373 
	C589.119019,322.871429 589.138123,323.879456 589.087036,325.803406 
	C587.039612,337.645508 584.949402,349.480682 583.020081,361.342010 
	C582.852356,362.373199 583.744568,363.576752 584.867188,364.252136 
	C596.012451,359.306396 604.885559,351.093048 613.481262,342.914978 
	C626.798035,330.245209 639.299622,316.978760 643.626709,297.775269 
	C645.467285,289.607056 646.146179,281.397919 644.549988,273.939819 
	C641.612976,260.217712 632.753784,249.990417 619.414490,243.706833 
	C612.449707,242.794357 605.430969,240.844910 598.532227,241.203552 
	C587.141052,241.795746 577.303955,247.163986 568.875122,254.772018 
	C567.467957,256.042145 564.304504,257.877106 568.087280,261.127625 
	C569.386292,262.391510 570.892456,263.503906 571.947083,264.946442 
	C575.762634,270.165375 579.426514,275.495270 583.190308,281.449615 
	C583.839294,282.299591 584.488281,283.149536 585.039917,283.969727 
M497.056824,315.856110 
	C493.367249,316.208618 489.677643,316.561127 485.454224,316.920044 
	C485.278931,316.950836 485.103638,316.981598 484.184509,316.942444 
	C482.759125,317.237732 481.333710,317.532990 479.118439,317.843597 
	C472.930023,320.500885 466.633667,322.937439 460.590851,325.892456 
	C456.513306,327.886383 455.596466,331.350403 458.632019,335.936554 
	C470.644012,347.185516 482.656006,358.434479 495.136536,370.122223 
	C496.966095,368.054077 498.176178,366.572540 499.503296,365.204529 
	C507.564545,356.895020 515.747925,348.722504 525.975952,342.997009 
	C535.019531,337.934601 535.892273,332.033691 528.292419,324.805420 
	C525.880249,322.511169 522.700134,321.024384 519.436462,318.602020 
	C512.592346,315.251404 505.378754,314.762756 497.056824,315.856110 
M507.952789,251.081680 
	C501.905823,251.584412 495.858887,252.087143 489.054718,252.693542 
	C488.730042,252.765274 488.392914,252.802231 488.082489,252.913712 
	C459.263519,263.263733 445.779846,296.706635 445.924774,319.673035 
	C445.930786,320.628479 447.192902,321.575989 448.761444,322.362732 
	C451.661713,320.727783 454.580841,319.125183 457.457458,317.449677 
	C461.039368,315.363403 464.361603,312.173401 468.202087,311.346741 
	C473.643188,310.175568 474.259094,306.055847 474.924377,302.443665 
	C476.137238,295.858246 478.512726,290.031891 482.603241,284.795135 
	C489.487030,275.982361 497.798309,269.025818 508.378387,265.120514 
	C516.217712,262.226868 524.150818,259.587311 532.272583,256.492859 
	C531.529480,255.858810 530.861633,254.805603 530.031433,254.656601 
	C522.991028,253.392868 515.921143,252.293884 507.952789,251.081680 
M268.148834,358.862549 
	C268.858124,362.910889 269.404388,366.997589 270.344452,370.991638 
	C270.826538,373.039978 272.012238,374.922729 273.016907,377.682556 
	C277.909637,392.357849 284.983307,405.947723 293.985779,418.474976 
	C307.195526,436.856781 322.152313,453.617096 341.032043,466.438934 
	C355.148499,476.025879 369.040283,486.029053 383.717651,494.684357 
	C405.214722,507.361267 426.029144,520.938049 445.763214,536.201721 
	C464.854523,550.968201 482.313812,567.384521 497.184174,586.463257 
	C500.146667,590.264038 503.194275,593.998535 506.202606,597.763672 
	C506.841217,597.517334 507.479828,597.271057 508.118469,597.024719 
	C506.637512,590.059021 506.150818,582.680725 503.467224,576.214111 
	C497.992859,563.022705 489.182404,551.750732 477.896545,543.103088 
	C461.562195,530.587097 444.714600,518.705811 427.694214,507.129639 
	C408.179169,493.856750 391.078033,478.207306 378.101105,458.466614 
	C372.440887,449.856293 367.690521,440.593140 363.144104,431.323761 
	C359.909546,424.729156 357.101349,417.791901 355.190674,410.713928 
	C352.579865,401.042328 351.135620,391.061676 348.924469,381.273804 
	C347.851898,376.526123 347.157379,371.245697 344.540405,367.397461 
	C340.453613,361.387787 335.116211,356.148010 329.885498,351.013092 
	C317.617706,338.969879 306.142242,326.288330 298.275726,310.881226 
	C293.976532,302.460907 290.633148,293.552612 286.674225,284.409332 
	C285.439941,285.222504 283.731110,285.749207 283.041626,286.891296 
	C269.774689,308.866699 264.678406,332.581757 268.148834,358.862549 
M292.107544,259.781982 
	C294.760406,269.291992 297.413269,278.802002 300.699371,288.965302 
	C304.503265,296.481720 307.742798,304.354340 312.219147,311.446320 
	C324.589386,331.044952 341.468903,346.141907 361.010681,358.400574 
	C371.450836,364.949738 381.817078,371.616791 392.240417,378.245697 
	C390.455811,367.302124 388.805298,356.665070 386.944611,346.064911 
	C386.336578,342.600861 385.616486,339.039215 384.199188,335.855347 
	C378.854065,323.847565 369.579590,313.514160 368.406494,299.748932 
	C367.651886,290.894318 365.984528,281.708832 367.547150,273.189026 
	C368.903320,265.794922 371.182068,258.025055 376.556885,251.499542 
	C381.414307,245.602158 386.823181,240.664368 393.920197,239.283539 
	C403.627411,237.394821 413.643433,236.437820 423.350555,240.800064 
	C425.815186,241.907654 428.831543,241.288742 431.168335,238.283051 
	C436.443573,231.497665 441.760406,224.551773 448.124359,218.861069 
	C454.230194,213.401123 461.431427,209.001007 468.623199,204.978851 
	C473.390076,202.312866 478.988129,201.133041 484.855652,199.061417 
	C465.508820,183.937225 444.635437,173.103058 420.033478,168.518036 
	C402.777557,164.723511 385.369110,163.820511 367.843903,166.045486 
	C364.109985,166.519547 360.467621,167.714828 355.990540,168.670868 
	C354.851898,168.907425 353.676239,169.032501 352.579987,169.396637 
	C312.780273,182.617569 288.662048,219.120697 292.107544,259.781982 
M516.377075,554.562134 
	C516.531982,568.034424 516.686829,581.506775 516.847168,595.453064 
	C519.438904,594.853516 520.550049,594.596497 522.390564,594.068665 
	C524.018738,591.959595 525.451843,589.658630 527.306702,587.772400 
	C539.494751,575.377625 551.166382,562.381042 564.194031,550.932129 
	C577.243896,539.463806 591.311218,529.042358 605.600403,519.124146 
	C622.215271,507.591736 639.597656,497.169037 656.566650,486.141327 
	C667.416992,479.089996 678.642578,472.476074 688.776917,464.494110 
	C706.377441,450.631653 722.885010,435.423584 735.318970,416.532318 
	C744.513367,402.563049 752.664246,388.100037 755.362000,371.057312 
	C757.178528,359.581329 759.266113,348.158783 757.962036,336.580658 
	C756.847961,326.689484 755.720764,316.593964 752.737305,307.178864 
	C749.927856,298.312775 744.685791,290.217499 740.163208,281.852020 
	C738.389404,284.563324 735.941406,287.048584 734.945068,290.020538 
	C723.756897,323.393677 704.849792,351.852509 679.905701,376.367920 
	C657.362854,398.523376 631.748169,416.780792 605.092651,433.595703 
	C580.189453,449.305206 556.561401,466.154510 539.965820,491.451904 
	C527.385803,510.628082 518.205994,530.672058 516.377075,554.562134 
M503.068878,381.885773 
	C504.487671,382.974945 505.875122,384.108063 507.330719,385.145660 
	C513.519653,389.557312 520.276550,393.360748 525.747742,398.528015 
	C529.723877,402.283325 532.670227,401.475128 536.025146,399.046234 
	C544.117493,393.187592 552.242493,387.338898 559.936218,380.980286 
	C563.505859,378.030090 566.198547,373.978088 569.115051,370.288239 
	C573.306702,364.985107 574.598145,358.629700 575.606995,352.115356 
	C576.521423,346.211151 578.463562,340.429352 578.973816,334.509186 
	C579.528320,328.075989 578.953430,321.545471 578.661072,314.682220 
	C577.599182,315.085541 576.293762,315.222137 575.513733,315.934204 
	C569.029602,321.853394 563.117126,328.515045 556.122437,333.733063 
	C543.462830,343.177124 529.906189,351.420868 517.274841,360.899689 
	C511.817291,364.995117 507.588531,370.797760 503.137329,376.106415 
	C502.238098,377.178833 502.852020,379.519958 503.068878,381.885773 
M553.847351,267.691681 
	C535.369934,263.660278 518.637268,268.472382 502.966766,278.025696 
	C494.014618,283.483246 486.516235,290.481323 482.466949,300.462738 
	C482.009552,301.590240 482.564789,303.128571 483.469574,304.852570 
	C485.869049,305.160828 488.261475,305.648285 490.669373,305.743530 
	C497.678894,306.020813 504.697021,306.079956 511.706909,306.350983 
	C514.811035,306.470978 518.358459,306.015747 520.918762,307.340485 
	C529.781860,311.926453 539.202332,315.925049 545.255249,324.541962 
	C546.919250,326.910797 548.475830,328.029510 551.215210,325.584412 
	C556.927612,320.485840 563.210693,315.987366 568.607361,310.590393 
	C571.470642,307.726898 574.255615,303.698212 574.851562,299.850922 
	C576.932617,286.418060 566.873779,271.872528 553.847351,267.691681 
M410.358795,247.678146 
	C397.259064,244.967300 387.572510,249.130447 381.875732,260.911011 
	C379.244415,266.352478 377.347595,272.405945 376.512543,278.376984 
	C375.858246,283.055389 377.350281,288.033966 378.039978,293.632538 
	C385.217865,316.385315 401.069641,332.417358 419.700012,345.862122 
	C428.754059,352.395996 438.792969,357.700684 448.798950,362.742371 
	C459.088867,367.927094 469.583618,372.950409 481.698181,374.096802 
	C481.243439,373.112335 480.148895,372.848755 479.454651,372.173553 
	C467.371124,360.421783 454.765259,349.140442 443.428162,336.703766 
	C427.222137,318.925842 419.298248,297.484924 419.045319,273.335358 
	C418.998199,268.836273 419.070648,264.336029 419.067627,259.836334 
	C419.061371,250.601257 419.055725,250.601257 410.358795,247.678146 
M634.387451,339.036255 
	C633.187500,339.358002 631.582886,339.291779 630.847534,340.058929 
	C616.591614,354.930359 600.006104,366.833344 583.006653,378.283508 
	C568.392883,388.126831 553.795227,398.033783 539.686096,408.575836 
	C524.420654,419.981873 510.839600,433.224152 501.059570,449.830536 
	C499.956512,451.703552 500.393402,454.483459 500.721863,457.440491 
	C509.528107,468.482239 518.334351,479.524017 527.279785,490.740295 
	C527.770996,490.351562 528.968567,489.686127 529.792969,488.706604 
	C536.002014,481.329315 542.005066,473.775208 548.323364,466.494019 
	C562.187805,450.516541 579.671692,438.940796 596.946777,427.170135 
	C607.972351,419.657623 616.436768,410.194916 621.291016,397.669037 
	C624.034363,390.590057 626.316162,383.285461 629.632629,376.485748 
	C635.494263,364.467926 636.004700,351.978210 634.387451,339.036255 
M366.331726,374.585571 
	C363.530396,372.774231 360.729065,370.962891 357.927704,369.151581 
	C357.322998,369.526764 356.718292,369.901978 356.113586,370.277191 
	C358.064026,377.504303 360.014465,384.731415 362.076935,392.743103 
	C362.466766,393.785065 362.854218,394.827881 363.246704,395.868835 
	C368.407806,409.556366 372.673615,423.671661 378.955170,436.824127 
	C387.052338,453.778137 397.827545,469.383606 412.746368,481.082977 
	C427.188324,492.408356 442.372650,502.887970 457.857971,512.755005 
	C475.138702,523.766052 491.091644,536.044922 503.828796,552.226013 
	C504.336182,552.870544 505.276031,553.174622 506.002716,553.630005 
	C507.096527,548.856628 508.638489,544.531921 508.988678,540.112732 
	C509.786285,530.047302 513.433472,520.890015 516.674988,511.519257 
	C517.772217,508.347412 517.999573,504.032654 516.721741,501.057404 
	C514.102539,494.958832 511.083374,488.594269 506.652344,483.794617 
	C493.900696,469.982300 480.879730,456.331543 467.022766,443.646088 
	C442.979248,421.635376 413.757751,406.968597 386.910736,388.923157 
	C380.139557,384.371857 373.464874,379.676849 366.331726,374.585571 
M508.111938,425.569916 
	C512.623108,420.430176 517.134277,415.290405 521.866394,409.898834 
	C510.521332,399.281433 497.386292,393.352386 483.656311,389.109100 
	C454.534088,380.108826 427.565765,367.260986 404.033356,347.645386 
	C402.202728,346.119385 400.061584,344.965912 398.210052,343.735779 
	C398.210052,347.074554 397.741364,350.163727 398.303131,353.052490 
	C399.666016,360.060913 401.581451,366.959869 403.135376,373.933838 
	C404.474091,379.941803 407.009888,385.287476 412.061432,388.926697 
	C420.593597,395.073395 429.385498,400.858337 437.961731,406.945374 
	C449.719025,415.290100 461.494659,423.617737 473.030914,432.261627 
	C479.425049,437.052643 485.347748,442.472839 491.918823,447.974365 
	C497.233704,440.558899 502.420410,433.322296 508.111938,425.569916 
z"/>

</svg>